<svg id="图层_1" data-name="图层 1" xmlns="http://www.w3.org/2000/svg" viewBox="0 0 1583.65 583.45"><defs><style>.cls-1{fill:#d5a24e;}.cls-2{fill:#070237;}.cls-3{fill:none;stroke:#070237;stroke-miterlimit:10;stroke-width:50.45px;}</style></defs><title>dforce</title><path id="_复合路径_" data-name="&lt;复合路径&gt;" class="cls-1" d="M888.36,404.47V619.55H851.55v-76.7q0-18.71-12.89-31.3a44,44,0,0,0-62.28,62.28,39.67,39.67,0,0,0,14.27,9.67,45.79,45.79,0,0,0,17,3.22,41.85,41.85,0,0,0,16.26-3.07l13.19,32.83q-14.12,7.06-32.52,7.06a76.38,76.38,0,0,1-31.14-6.29,75.36,75.36,0,0,1-24.7-17.34,79.92,79.92,0,0,1-16.26-25.77,87.74,87.74,0,0,1,0-62.9,79.92,79.92,0,0,1,16.26-25.77,75.45,75.45,0,0,1,24.7-17.34,76.38,76.38,0,0,1,31.14-6.29,71.4,71.4,0,0,1,26.39,4.6,80.35,80.35,0,0,1,20.56,11.66V404.47Z" transform="translate(-96.91 -222.28)"/><path id="_复合路径_2" data-name="&lt;复合路径&gt;" class="cls-2" d="M962,441.59v52.16h80.08l9.2,36.82H962v89H925.18V404.77h144.51v36.82Z" transform="translate(-96.91 -222.28)"/><path id="_复合路径_3" data-name="&lt;复合路径&gt;" class="cls-2" d="M1153.76,461.84a79.67,79.67,0,0,1,31.6,6.29,80.85,80.85,0,0,1,43.11,43.11,81.77,81.77,0,0,1,0,62.9,80.85,80.85,0,0,1-43.11,43.11,82.53,82.53,0,0,1-63.2,0A80.85,80.85,0,0,1,1079,574.14a81.76,81.76,0,0,1,0-62.9,80.85,80.85,0,0,1,43.11-43.11A79.66,79.66,0,0,1,1153.76,461.84Zm0,36.82a44,44,0,0,0-31.3,75.17,39.67,39.67,0,0,0,14.27,9.67,45.79,45.79,0,0,0,17,3.22,44.65,44.65,0,0,0,16.88-3.22,43.14,43.14,0,0,0,14.42-9.67,44.07,44.07,0,0,0,0-62.28Q1171.55,498.66,1153.76,498.66Z" transform="translate(-96.91 -222.28)"/><path id="_复合路径_4" data-name="&lt;复合路径&gt;" class="cls-2" d="M1318.67,466.14a62.91,62.91,0,0,1,24.7-4.6v36.82a42.61,42.61,0,0,0-31.3,12.89q-12.89,13.5-12.89,31.3v77h-36.82V465.83h36.82v12A78.77,78.77,0,0,1,1318.67,466.14Z" transform="translate(-96.91 -222.28)"/><path id="_复合路径_5" data-name="&lt;复合路径&gt;" class="cls-2" d="M1500.15,599.91a81.07,81.07,0,0,1-25.77,17.34,82.53,82.53,0,0,1-63.2,0,80.85,80.85,0,0,1-43.11-43.11,81.76,81.76,0,0,1,0-62.9,80.85,80.85,0,0,1,43.11-43.11,82.54,82.54,0,0,1,63.2,0,81.18,81.18,0,0,1,25.77,17.34l-26.08,26.08a42.61,42.61,0,0,0-31.3-12.89q-17.8,0-31.3,12.89a44.07,44.07,0,0,0,0,62.28,43.08,43.08,0,0,0,14.42,9.67,44.62,44.62,0,0,0,16.88,3.22q18.71,0,31.3-12.89Z" transform="translate(-96.91 -222.28)"/><path id="_复合路径_6" data-name="&lt;复合路径&gt;" class="cls-2" d="M1639.75,561.25h-80.39a38.08,38.08,0,0,0,8.9,12.58,43.08,43.08,0,0,0,14.42,9.67,44.62,44.62,0,0,0,16.88,3.22,43,43,0,0,0,22.4-5.83l38.35,15.34a77.31,77.31,0,0,1-26.69,20.1,81.23,81.23,0,0,1-108.77-42.19,81.76,81.76,0,0,1,0-62.9A80.85,80.85,0,0,1,1568,468.13a82.54,82.54,0,0,1,63.2,0,80.85,80.85,0,0,1,43.11,43.11,79.67,79.67,0,0,1,6.29,31.6,75.82,75.82,0,0,1-2.15,18.41Zm-40.19-62.59q-17.8,0-31.3,12.89a41.59,41.59,0,0,0-8.9,12.89h80.39a41.77,41.77,0,0,0-8.9-12.89A42.61,42.61,0,0,0,1599.56,498.66Z" transform="translate(-96.91 -222.28)"/><g id="_编组_" data-name="&lt;编组&gt;"><path id="_路径_" data-name="&lt;路径&gt;" class="cls-3" d="M173.13,247.5h138.5c74.53,0,137.52,23.86,187.22,70.91s75,110.84,75,189.31c0,81.49-25.12,148-74.66,197.65-49.73,49.85-114.44,75.12-192.35,75.12H198.49V377.4" transform="translate(-96.91 -222.28)"/></g><path id="_路径_2" data-name="&lt;路径&gt;" class="cls-1" d="M249.88,721h0c74.15,0,135.85-19.73,183.37-58.64,48.17-39.44,72.6-92.43,72.6-157.47,0-62.69-24.54-113.45-72.94-150.89-47.47-36.71-107.5-53-178.43-53H96.91V721H146.7V350H259.49c28.54,0,55,3.69,78.53,11,23.32,7.19,44.56,15.76,63.13,30.12,18.24,14.11,32.09,30.81,41.16,49.62s13.75,40.72,13.75,64.75c0,25.24-4.66,48.18-13.85,68.19-9.12,19.85-23,37.53-41.35,52.53a192.29,192.29,0,0,1-64,34.33c-24.21,7.7-51.63,11.6-81.5,11.6l-5.49.17Z" transform="translate(-96.91 -222.28)"/></svg>