<?xml version="1.0" encoding="UTF-8"?>
<svg width="386px" height="150px" viewBox="0 0 386 150" version="1.1" xmlns="http://www.w3.org/2000/svg" xmlns:xlink="http://www.w3.org/1999/xlink">
    <title>Security-9</title>
    <g id="2022---新官网" stroke="none" stroke-width="1" fill="none" fill-rule="evenodd">
        <g id="编组-16" transform="translate(-814.000000, -340.000000)" fill="#FFFFFF" fill-rule="nonzero">
            <g id="编组-8">
                <path d="M926.1613,395 L929.2898,398.099806 L920.1738,407.379406 L924.4671,411.749806 L935.306,400.715 L935.3066,395.308596 L939.5203,395.308596 L939.52,401.083 L950.1364,411.890006 L954.3774,407.572806 L945.1227,398.152066 L948.2512,395.052256 L960.551,407.572806 L953.128,415.128 L960.5509,422.685206 L948.3897,435.064706 L945.2612,431.964906 L954.3772,422.685206 L950.084,418.314906 L939.52,429.067 L939.5203,434.756106 L935.3066,434.756106 L935.306,429.261 L924.4146,418.174706 L920.17365,422.491806 L929.4283,431.912606 L926.2998,435.012406 L914,422.491806 L921.423,414.935 L914.00016,407.379406 L926.1613,395 Z M1074.54,410.349106 C1079.00176,410.349106 1081.99679,413.255969 1082.11252,417.769289 L1082.116,418.042006 L1082.116,419.392606 L1071.076,419.392606 C1071.134,421.653506 1072.72,422.916006 1074.687,422.916006 C1076.11367,422.916006 1077.27367,422.303489 1077.78605,421.103765 L1077.858,420.919406 L1081.998,420.919406 C1081.323,424.090506 1078.416,426.233906 1074.57,426.233906 C1069.989,426.233906 1066.936,423.062906 1066.936,418.276906 C1066.936,413.520206 1069.989,410.349106 1074.54,410.349106 Z M1035.78,410.642806 L1035.78,419.187106 C1035.78,421.565406 1037.013,422.710506 1038.951,422.651806 C1040.90714,422.62342 1041.95995,421.36338 1042.03023,419.241528 L1042.034,419.010906 L1042.034,410.642806 L1045.939,410.642806 L1045.939,425.911006 L1042.181,425.911006 L1041.975,424.237306 C1041.182,425.382406 1039.861,426.204606 1038.041,426.204606 C1034.2218,426.204606 1031.97626,423.73427 1031.87834,419.973975 L1031.875,419.715606 L1031.875,410.642806 L1035.78,410.642806 Z M996.048,410.349106 C999.033742,410.349106 1001.82302,412.201834 1001.94551,416.236715 L1001.9497,416.515206 L1001.9497,425.940306 L997.8097,425.940306 L997.8097,417.337306 C997.8097,415.047106 996.7233,414.019406 995.0496,414.019406 C993.490386,414.019406 992.287002,415.004766 992.15303,417.213377 L992.1428,417.454706 L992.1428,425.911006 L988.179,425.911006 L988.179,417.542806 C988.179,415.047106 987.0632,414.019406 985.4189,414.019406 C983.746334,414.019406 982.593763,415.032174 982.516264,417.136916 L982.5121,417.366606 L982.5121,425.911006 L978.4014,425.911006 L978.4014,410.642806 L982.2185,410.642806 L982.6589,412.316406 C983.393,411.053806 984.8023,410.349106 986.6521,410.349106 C988.7075,410.349106 990.4692,411.171306 991.4088,412.962406 C992.319,411.171306 994.1394,410.349106 996.048,410.349106 Z M1022.858,410.349106 C1025.84413,410.349106 1028.63332,412.201834 1028.75581,416.236715 L1028.76,416.515206 L1028.76,425.940306 L1024.62,425.940306 L1024.62,417.337306 C1024.62,415.047106 1023.533,414.019406 1021.86,414.019406 C1020.30069,414.019406 1019.09656,415.004766 1018.96316,417.213377 L1018.953,417.454706 L1018.953,425.911006 L1014.989,425.911006 L1014.989,417.542806 C1014.989,415.047106 1013.8732,414.019406 1012.2289,414.019406 C1010.55624,414.019406 1009.40376,415.032174 1009.32626,417.136916 L1009.3221,417.366606 L1009.3221,425.911006 L1005.2114,425.911006 L1005.2114,410.642806 L1009.0284,410.642806 L1009.4689,412.316406 C1010.2029,411.053806 1011.6123,410.349106 1013.4621,410.349106 C1015.517,410.349106 1017.279,411.171306 1018.219,412.962406 C1019.129,411.171306 1020.949,410.349106 1022.858,410.349106 Z M974.7498,404.770406 L974.7498,425.911006 L970.551,425.911006 L970.551,404.770406 L974.7498,404.770406 Z M1058.002,410.349106 C1061.82022,410.349106 1064.03897,412.819442 1064.1357,416.579737 L1064.139,416.838106 L1064.139,425.911006 L1059.999,425.911006 L1059.999,417.689606 C1059.999,415.164506 1058.795,413.872606 1056.798,413.872606 C1054.6951,413.872606 1053.52778,415.274958 1053.45466,417.600765 L1053.451,417.836406 L1053.451,425.911006 L1049.34,425.911006 L1049.34,410.642806 L1053.157,410.642806 L1053.392,412.463206 C1054.185,411.200606 1055.712,410.349106 1058.002,410.349106 Z M1093.704,403.830806 L1093.704,407.178106 L1092.177,407.178106 C1090.56996,407.178106 1090.23565,407.935753 1090.21148,408.957542 L1090.21,409.086606 L1090.21,410.642806 L1093.704,410.642806 L1093.704,414.224906 L1090.21,414.224906 L1090.21,425.911006 L1086.07,425.911006 L1086.07,414.224906 L1083.721,414.224906 L1083.721,410.642806 L1086.07,410.642806 L1086.07,408.675506 C1086.07,405.780613 1087.35648,403.920908 1090.99645,403.833991 L1091.267,403.830806 L1093.704,403.830806 Z M1100.588,410.642806 L1100.588,425.911006 L1096.478,425.911006 L1096.478,410.642806 L1100.588,410.642806 Z M937.2328,405.039306 L927.458,414.989 L937.3182,425.025406 L947.092,415.076 L937.2328,405.039306 Z M1074.54,413.549606 C1072.84189,413.549606 1071.38834,414.50521 1071.12887,416.46896 L1071.105,416.691306 L1078.005,416.691306 C1077.829,414.577306 1076.331,413.549606 1074.54,413.549606 Z M1100.647,403.830806 L1100.588,408.293806 L1096.419,408.293806 L1096.478,403.830806 L1100.647,403.830806 Z" id="9"></path>
            </g>
        </g>
    </g>
</svg>