<?xml version="1.0" encoding="UTF-8"?>
<svg width="386px" height="150px" viewBox="0 0 386 150" version="1.1" xmlns="http://www.w3.org/2000/svg" xmlns:xlink="http://www.w3.org/1999/xlink">
    <title>Security-2</title>
    <g id="2022---新官网" stroke="none" stroke-width="1" fill="none" fill-rule="evenodd">
        <g id="编组-16" transform="translate(-406.000000, 0.000000)" fill="#FFFFFF" fill-rule="nonzero">
            <g id="编组-8">
                <path d="M536.79269,53 C548.831516,53 558.595446,62.7538646 558.595446,74.7926902 C558.595446,86.8315159 548.82145,96.5954464 536.79269,96.5954464 C524.76393,96.5954464 515,86.82145 515,74.7926902 C515,62.7639305 524.76393,53 536.79269,53 Z M609.20683,74.6215698 C611.662912,74.6215698 613.132534,75.688556 613.998203,77.218574 L613.998203,75.2758538 C613.998203,75.1291791 614.101738,75.0046906 614.23908,74.9721158 L614.310246,74.9638107 L614.310246,74.9638107 L617.843379,74.9638107 C617.990054,74.9638107 618.114542,75.0673457 618.147117,75.2046881 L618.155422,75.2758538 L618.155422,75.2758538 L618.155422,88.8748951 C618.125225,93.3441582 615.155782,95.6291192 610.193289,95.6291192 C605.512642,95.6291192 603.278011,93.6562013 602.744518,90.747154 C602.71432,90.5760336 602.825045,90.414979 602.996165,90.3847813 C603.026363,90.3747154 603.046495,90.3747154 603.066627,90.3747154 L606.609826,90.3747154 C606.750749,90.3747154 606.87154,90.4653086 606.911803,90.6062313 C607.233913,91.8040743 608.20024,92.5690833 610.203355,92.5690833 C612.739964,92.5690833 614.008268,91.2403835 614.008268,88.8748951 L614.008268,86.6 C613.001678,88.3212702 611.159617,89.3882564 609.156501,89.3983223 C605.49251,89.3983223 602.573397,86.6603954 602.573397,82.1810665 L602.573397,81.9797484 C602.573397,77.651408 605.462313,74.6215698 609.20683,74.6215698 Z M659.576633,74.6215698 C662.968844,74.6215698 666.119473,76.0710605 666.6429,80.1276213 C666.663032,80.2987418 666.542241,80.4597963 666.37112,80.4799281 L662.97891,80.4799281 C662.837987,80.4799281 662.70713,80.379269 662.676932,80.2383463 C662.334691,78.6479329 661.287837,77.9131216 659.667226,77.9131216 C657.503056,77.9131216 656.063631,79.5337328 656.063631,82.4125824 L656.063631,82.6440983 C656.063631,85.6739365 657.422528,87.2341522 659.757819,87.2341522 C661.358298,87.2341522 662.666866,86.3382864 662.958778,84.5767525 C662.97891,84.4257639 663.109766,84.3251049 663.260755,84.3251049 L666.431516,84.3251049 C666.602636,84.3251049 666.743559,84.4660276 666.743559,84.637148 L666.743559,84.6673457 L666.743559,84.6673457 C666.37112,88.0595566 663.804314,90.3847813 659.556501,90.3847813 C655.137567,90.3747154 651.78562,87.6367885 651.78562,82.7044937 L651.78562,82.4729778 C651.78562,77.6010785 655.27849,74.6215698 659.576633,74.6215698 Z M627.405992,74.6215698 C631.301498,74.6215698 634.76417,76.8964649 634.76417,82.3018574 L634.76417,83.1473936 C634.76417,83.2940683 634.660635,83.4185569 634.523293,83.4511317 L634.452127,83.4594368 L634.452127,83.4594368 L623.882924,83.4594368 C624.003715,85.9658478 625.352546,87.4153385 627.637507,87.4153385 C629.449371,87.4153385 630.405632,86.6805273 630.727741,85.5330138 C630.768005,85.402157 630.888796,85.3115638 631.019652,85.3115638 L634.361534,85.3115638 C634.532654,85.3115638 634.673577,85.4524865 634.673577,85.623607 C634.673577,85.6437388 634.673577,85.6638706 634.663511,85.6840024 C634.039425,88.7037747 631.482684,90.3847813 627.516717,90.3847813 C622.95686,90.3747154 619.645177,87.5159976 619.645177,82.7044937 L619.645177,82.4729778 C619.645177,77.7118035 623.017256,74.6215698 627.405992,74.6215698 Z M675.561294,74.6215698 C679.4568,74.6215698 682.919473,76.8964649 682.919473,82.3018574 L682.919473,83.1473936 C682.919473,83.3185141 682.77855,83.4594368 682.60743,83.4594368 L672.038226,83.4594368 C672.159017,85.9658478 673.507849,87.4153385 675.79281,87.4153385 C677.604673,87.4153385 678.560935,86.6805273 678.883044,85.5330138 C678.923307,85.402157 679.044098,85.3014979 679.185021,85.3115638 L682.526902,85.3115638 C682.698023,85.3115638 682.838945,85.4524865 682.838945,85.623607 C682.838945,85.6437388 682.838945,85.6638706 682.82888,85.6840024 C682.204793,88.7037747 679.648053,90.3847813 675.682085,90.3847813 C671.122229,90.3747154 667.800479,87.5159976 667.800479,82.7044937 L667.800479,82.4729778 C667.800479,77.7118035 671.172558,74.6215698 675.561294,74.6215698 Z M645.373637,74.6215698 C648.34308,74.6215698 650.45692,76.4133014 650.45692,80.4497304 L650.45692,89.7506291 C650.45692,89.8973038 650.353385,90.0217923 650.216043,90.0543672 L650.144877,90.0626723 L650.144877,90.0626723 L646.581546,90.0626723 C646.434871,90.0626723 646.310383,89.9591372 646.277808,89.8217948 L646.269503,89.7506291 L646.269503,89.7506291 L646.269503,81.0637507 C646.269503,79.0103056 645.46423,78.0339125 643.612103,78.0339125 C641.820371,78.0339125 640.47154,79.1310965 640.47154,81.3556621 L640.47154,89.760695 C640.47154,89.9318155 640.330617,90.0727382 640.159497,90.0727382 L636.596165,90.0727382 C636.449491,90.0727382 636.325002,89.9692031 636.292427,89.8318607 L636.284122,89.760695 L636.284122,89.760695 L636.284122,75.2758538 C636.284122,75.1047334 636.425045,74.9638107 636.596165,74.9638107 L640.159497,74.9638107 C640.330617,74.9638107 640.47154,75.1047334 640.47154,75.2758538 L640.47154,77.3594967 C641.216417,75.8596765 642.867226,74.6215698 645.373637,74.6215698 Z M569.688077,69.4275614 C576.93553,69.4275614 580.508928,73.3532654 580.508928,79.5236669 L580.508928,79.7551827 C580.508928,85.9356501 576.905333,90.0626723 569.657879,90.0626723 L563.245896,90.0626723 C563.099221,90.0626723 562.974733,89.9591372 562.942158,89.8217948 L562.933853,89.7506291 L562.933853,89.7506291 L562.933853,69.7396046 C562.933853,69.5684841 563.074775,69.4275614 563.245896,69.4275614 L569.688077,69.4275614 Z M586.115638,74.9638107 C586.262313,74.9638107 586.386801,75.0673457 586.419376,75.2046881 L586.427681,75.2758538 L586.427681,75.2758538 L586.427681,89.7506291 C586.427681,89.8973038 586.324146,90.0217923 586.186804,90.0543672 L586.115638,90.0626723 L586.115638,90.0626723 L582.582504,90.0626723 C582.43583,90.0626723 582.311341,89.9591372 582.278766,89.8217948 L582.270461,89.7506291 L582.270461,89.7506291 L582.270461,75.2758538 C582.270461,75.1047334 582.411384,74.9638107 582.582504,74.9638107 L586.115638,74.9638107 Z M593.212103,68.1290593 C593.358778,68.1290593 593.483266,68.2325944 593.515841,68.3699368 L593.524146,68.4411025 L593.524146,89.7506291 C593.524146,89.8973038 593.420611,90.0217923 593.283269,90.0543672 L593.212103,90.0626723 L593.212103,90.0626723 L589.678969,90.0626723 C589.532295,90.0626723 589.407806,89.9591372 589.375231,89.8217948 L589.366926,89.7506291 L589.366926,89.7506291 L589.366926,68.4411025 C589.366926,68.269982 589.507849,68.1290593 589.678969,68.1290593 L593.212103,68.1290593 Z M600.27837,74.9638107 C600.425045,74.9638107 600.549534,75.0673457 600.582108,75.2046881 L600.590413,75.2758538 L600.590413,75.2758538 L600.590413,89.7506291 C600.590413,89.8973038 600.486878,90.0217923 600.349536,90.0543672 L600.27837,90.0626723 L600.27837,90.0626723 L596.745237,90.0626723 C596.598562,90.0626723 596.474073,89.9591372 596.441499,89.8217948 L596.433194,89.7506291 L596.433194,89.7506291 L596.433194,75.2758538 C596.443259,75.1047334 596.574116,74.9638107 596.745237,74.9638107 L600.27837,74.9638107 Z M547.029718,70.0516477 L542.781905,70.0516477 C542.67118,70.0516477 542.580587,70.1422409 542.580587,70.2529658 L542.580587,70.2529658 L542.580587,86.7308568 C542.580587,86.8415818 542.67118,86.932175 542.781905,86.932175 L542.781905,86.932175 L547.019652,86.932175 C547.130377,86.932175 547.220971,86.8415818 547.220971,86.7308568 L547.220971,86.7308568 L547.231037,86.7308568 L547.231037,70.2529658 C547.231037,70.1422409 547.140443,70.0516477 547.029718,70.0516477 L547.029718,70.0516477 Z M530.924266,70.0516477 L526.676453,70.0516477 C526.565728,70.0516477 526.475135,70.1422409 526.475135,70.2529658 L526.475135,70.2529658 L526.475135,86.7308568 C526.475135,86.8415818 526.565728,86.932175 526.676453,86.932175 L526.676453,86.932175 L530.924266,86.932175 C531.034991,86.932175 531.125584,86.8415818 531.125584,86.7308568 L531.125584,86.7308568 L531.125584,70.2529658 C531.125584,70.1422409 531.034991,70.0516477 530.924266,70.0516477 L530.924266,70.0516477 Z M538.976992,62.6632714 L534.729179,62.6632714 C534.618454,62.6632714 534.527861,62.7538646 534.527861,62.8645896 L534.527861,62.8645896 L534.527861,86.7207909 C534.527861,86.8315159 534.618454,86.922109 534.729179,86.922109 L534.729179,86.922109 L538.976992,86.922109 C539.087717,86.922109 539.17831,86.8315159 539.17831,86.7207909 L539.17831,86.7207909 L539.17831,62.8645896 C539.17831,62.7538646 539.087717,62.6632714 538.976992,62.6632714 L538.976992,62.6632714 Z M569.466627,73.0613541 L567.6145,73.0613541 L567.6145,86.4188137 L569.516956,86.4188137 C573.674176,86.4188137 575.637028,84.0835231 575.637028,79.8155782 L575.637028,79.5840623 C575.637028,75.3463152 573.815099,73.0613541 569.466627,73.0613541 Z M610.495267,77.7923307 C608.159976,77.7923307 606.861474,79.4632714 606.861474,81.9495506 L606.861474,82.1810665 C606.861474,84.6874775 608.331096,86.2476932 610.414739,86.2476932 C612.599041,86.2476932 614.129059,84.6874775 614.129059,82.1206711 L614.129059,81.9193529 C614.129059,79.3525464 612.770162,77.7923307 610.495267,77.7923307 Z M675.561294,77.5104853 C673.689035,77.5104853 672.420731,78.748592 672.098622,80.8825644 L678.852846,80.8825644 C678.711923,78.6076693 677.554344,77.5104853 675.561294,77.5104853 Z M627.395926,77.5104853 C625.523667,77.5104853 624.255362,78.748592 623.933253,80.8825644 L630.687478,80.8825644 C630.546555,78.6076693 629.388975,77.5104853 627.395926,77.5104853 Z M598.486639,68.3605752 C599.845536,68.3605752 600.882325,69.3470342 600.882325,70.6354703 C600.882325,71.9239065 599.845536,72.9103655 598.486639,72.9103655 C597.157939,72.9204314 596.12115,71.9339724 596.12115,70.6354703 C596.12115,69.3369682 597.157939,68.3605752 598.486639,68.3605752 Z M584.323907,68.3605752 C585.682804,68.3605752 586.719593,69.3470342 586.719593,70.6354703 C586.719593,71.9239065 585.682804,72.9103655 584.323907,72.9103655 C582.995207,72.9204314 581.958418,71.9339724 581.958418,70.6354703 C581.958418,69.3369682 582.995207,68.3605752 584.323907,68.3605752 Z M547.251168,62.6632714 L542.560455,62.6632714 C542.44973,62.6632714 542.359137,62.7538646 542.359137,62.8645896 L542.359137,62.8645896 L542.359137,67.5653685 C542.359137,67.6760935 542.44973,67.7666866 542.560455,67.7666866 L542.560455,67.7666866 L547.251168,67.7666866 C547.361893,67.7666866 547.452487,67.6760935 547.452487,67.5653685 L547.452487,67.5653685 L547.452487,62.8645896 C547.452487,62.7538646 547.361893,62.6632714 547.251168,62.6632714 L547.251168,62.6632714 Z M528.790294,62.6632714 C527.310605,62.6632714 526.14296,63.7604554 526.14296,65.2099461 C526.14296,66.6594368 527.310605,67.7566207 528.790294,67.7566207 C530.310246,67.7566207 531.467825,66.6594368 531.467825,65.2099461 C531.467825,63.7604554 530.310246,62.6632714 528.790294,62.6632714 Z M583.065668,59.8045536 C584.233313,59.8045536 584.937927,60.3380467 585.038586,61.3748352 L584.112522,61.3748352 C584.011863,60.8010785 583.689754,60.5594967 583.065668,60.5594967 C582.441582,60.5594967 582.129539,60.851408 582.129539,61.2741762 C582.129539,61.7170761 582.310725,61.9385261 583.25692,62.0693829 C584.535291,62.2405033 585.199641,62.6129419 585.199641,63.7000599 C585.199641,64.6462552 584.404434,65.3810665 583.196525,65.3810665 C581.696705,65.3810665 581.072618,64.6462552 581.002157,63.6195327 L581.97855,63.6195327 C582.049011,64.1630917 582.270461,64.6261234 583.186459,64.6261234 C583.790413,64.6261234 584.213182,64.2939485 584.213182,63.7906531 C584.213182,63.2873577 583.961534,63.0961055 583.0858,62.9551827 C581.787298,62.7840623 581.173277,62.381426 581.173277,61.3647693 C581.173277,60.4789694 581.92822,59.8045536 583.065668,59.8045536 Z M565.158418,59.7844218 C566.406591,59.7844218 567.372918,60.4085081 567.493709,61.6868784 L566.466986,61.6868784 C566.356261,60.962133 565.953625,60.5896944 565.168484,60.5896944 C564.212223,60.5896944 563.588137,61.3345716 563.588137,62.5525464 L563.588137,62.6129419 C563.588137,63.8409826 564.171959,64.5556621 565.17855,64.5556621 C565.933493,64.5556621 566.466986,64.1731576 566.567645,63.4081486 L567.554104,63.4081486 C567.39305,64.7167166 566.466986,65.3810665 565.17855,65.3810665 C563.477412,65.3810665 562.52115,64.2939485 562.52115,62.6230078 L562.52115,62.5626123 C562.52115,60.9319353 563.648532,59.7844218 565.158418,59.7844218 Z M599.090593,59.8045536 C600.258238,59.8045536 600.962852,60.3380467 601.063511,61.3748352 L600.137448,61.3748352 C600.036788,60.8010785 599.714679,60.5594967 599.090593,60.5594967 C598.466507,60.5594967 598.154464,60.851408 598.154464,61.2741762 C598.154464,61.7170761 598.33565,61.9385261 599.281845,62.0693829 C600.560216,62.2405033 601.2145,62.6129419 601.2145,63.7000599 C601.2145,64.6462552 600.419293,65.3810665 599.22145,65.3810665 C597.72163,65.3810665 597.097543,64.6462552 597.027082,63.6195327 L598.003475,63.6195327 C598.073936,64.1630917 598.295386,64.6261234 599.211384,64.6261234 C599.815339,64.6261234 600.238107,64.2939485 600.238107,63.7906531 C600.238107,63.2873577 599.986459,63.0961055 599.110725,62.9551827 C597.812223,62.7840623 597.198203,62.381426 597.198203,61.3647693 C597.198203,60.4789694 597.953146,59.8045536 599.090593,59.8045536 Z M608.914919,59.8045536 C610.082564,59.8045536 610.787178,60.3380467 610.887837,61.3748352 L609.961774,61.3748352 C609.861114,60.8010785 609.539005,60.5594967 608.914919,60.5594967 C608.290833,60.5594967 607.97879,60.851408 607.97879,61.2741762 C607.97879,61.7170761 608.159976,61.9385261 609.106171,62.0693829 C610.384542,62.2405033 611.048892,62.6129419 611.048892,63.7000599 C611.048892,64.6462552 610.253685,65.3810665 609.045776,65.3810665 C607.556022,65.3810665 606.931935,64.6462552 606.851408,63.6195327 L607.827801,63.6195327 C607.898262,64.1630917 608.119712,64.6261234 609.03571,64.6261234 C609.639664,64.6261234 610.062433,64.2939485 610.062433,63.7906531 C610.062433,63.2873577 609.810785,63.0961055 608.935051,62.9551827 C607.636549,62.7840623 607.022528,62.381426 607.022528,61.3647693 C607.022528,60.4789694 607.777472,59.8045536 608.914919,59.8045536 Z M571.318754,59.7944877 C572.929299,59.7944877 574.056681,60.9420012 574.056681,62.5324146 L574.056681,62.5928101 C574.056681,64.1832235 572.969563,65.3710006 571.318754,65.3710006 C569.657879,65.3810665 568.570761,64.1932894 568.570761,62.6230078 L568.570761,62.5626123 C568.570761,60.9721989 569.708209,59.7944877 571.318754,59.7944877 Z M576.502696,59.875015 L578.787657,63.800719 L578.787657,59.875015 L579.703655,59.875015 L579.703655,65.3106052 L578.6568,65.3106052 L576.210785,61.1433194 L576.210785,65.3106052 L575.294787,65.3106052 L575.294787,59.875015 L576.502696,59.875015 Z M589.900419,59.875015 L589.900419,60.6702217 L587.514799,60.6702217 L587.514799,62.159976 L589.427322,62.159976 L589.427322,62.924985 L587.514799,62.924985 L587.514799,64.5153984 L590.031276,64.5153984 L590.031276,65.3106052 L586.508209,65.3106052 L586.498143,59.875015 L589.900419,59.875015 Z M592.527621,59.875015 L594.812582,63.800719 L594.812582,59.875015 L595.72858,59.875015 L595.72858,65.3106052 L594.681726,65.3106052 L592.23571,61.1433194 L592.23571,65.3106052 L591.319712,65.3106052 L591.319712,59.875015 L592.527621,59.875015 Z M602.88544,59.875015 L604.113481,62.1197124 L605.301258,59.875015 L606.287717,59.875015 L604.586579,62.9551827 L604.586579,65.3005392 L603.569922,65.3005392 L603.569922,62.9551827 L601.768125,59.875015 L602.88544,59.875015 Z M571.318754,60.6098262 C570.251768,60.6098262 569.627681,61.394967 569.627681,62.5626123 L569.627681,62.6230078 C569.627681,63.8107849 570.352427,64.5757939 571.338886,64.5757939 C572.365608,64.565728 573.009826,63.7906531 573.009826,62.6129419 L573.009826,62.5525464 C573.009826,61.4352307 572.38574,60.6098262 571.318754,60.6098262 Z" id="2"></path>
            </g>
        </g>
    </g>
</svg>