<?xml version="1.0" encoding="UTF-8"?>
<svg width="386px" height="150px" viewBox="0 0 386 150" version="1.1" xmlns="http://www.w3.org/2000/svg" xmlns:xlink="http://www.w3.org/1999/xlink">
    <title>Security-4</title>
    <g id="2022---新官网" stroke="none" stroke-width="1" fill="none" fill-rule="evenodd">
        <g id="编组-16" transform="translate(0.000000, -170.000000)" fill="#FFFFFF" fill-rule="nonzero">
            <g id="编组-8">
                <path d="M134.310361,229 L138.160813,232.849329 L133.036232,237.97391 C134.414874,240.087338 135.148214,242.556508 135.146684,245.079845 L135.146684,245.079845 C135.148752,247.605947 134.414984,250.076808 133.03511,252.191394 L133.03511,252.191394 L138.160813,257.312606 L134.311484,261.160813 L129.185781,256.036232 C124.867014,258.852377 119.292676,258.852377 114.97391,256.036232 L114.97391,256.036232 L109.849329,261.160813 L106,257.312606 L111.124581,252.185781 C108.308436,247.867014 108.308436,242.292676 111.124581,237.97391 L111.124581,237.97391 L106,232.849329 L109.848206,229 L114.9784,234.124581 C119.297429,231.307948 124.872365,231.307948 129.191394,234.124581 L129.191394,234.124581 L134.310361,229 Z M272.66169,242.067961 C275.543355,242.067961 277.507871,244.295161 277.507871,247.61351 C277.507871,250.910529 275.478245,253.159058 272.574129,253.159058 C271.024968,253.159058 269.757574,252.373252 269.234452,251.389871 L269.234452,257.240761 L265.893652,257.240761 L265.893652,242.351974 L269.234452,242.351974 L269.234452,243.858477 C269.780026,242.853768 271.090077,242.067961 272.66169,242.067961 Z M154.662748,237.156671 C159.792942,237.156671 162.8284,240.889252 162.8284,245.233639 C162.8284,248.376865 161.234335,251.215871 158.396452,252.525923 L159.902955,254.490439 L156.802387,256.062052 L154.727858,253.311729 L154.662748,253.311729 C149.532555,253.311729 146.498219,249.578026 146.498219,245.233639 C146.498219,240.889252 149.532555,237.156671 154.662748,237.156671 Z M217.406026,242.046632 C220.484142,242.046632 222.099535,243.334232 222.099535,245.3212 L218.803639,245.3212 C218.803639,244.579174 218.258065,244.164942 217.362245,244.164942 C216.642671,244.164942 216.161084,244.512942 216.161084,245.037187 C216.161084,245.517652 216.488877,245.822994 217.056903,245.975665 L219.545665,246.652581 C221.162181,247.090387 222.209548,248.071523 222.209548,249.578026 C222.209548,251.740116 220.484142,253.202839 217.602477,253.202839 C214.524361,253.202839 212.624955,251.696335 212.624955,249.709368 L215.943303,249.709368 C215.943303,250.430065 216.642671,250.953187 217.66871,250.953187 C218.388284,250.953187 218.8912,250.582735 218.8912,249.970929 C218.8912,249.555574 218.694748,249.207574 218.126723,249.076232 L215.5504,248.421768 C213.803665,247.983961 212.908968,246.892813 212.908968,245.38631 C212.908968,243.421794 214.633252,242.046632 217.406026,242.046632 Z M237.119665,242.067961 C238.648619,242.067961 239.848658,242.788658 240.416684,243.858477 L240.416684,242.351974 L243.735032,242.351974 L243.735032,252.875045 L240.416684,252.875045 L240.416684,251.389871 C239.848658,252.438361 238.538606,253.159058 237.075884,253.159058 C233.932658,253.159058 232.120813,250.779187 232.120813,247.61351 C232.120813,244.470284 234.062877,242.067961 237.119665,242.067961 Z M168.045032,242.351974 L168.045032,248.115303 C168.045032,249.556697 168.525497,250.342503 169.791768,250.342503 C171.21071,250.342503 171.822516,249.425355 171.822516,248.006413 L171.822516,242.351974 L175.140865,242.351974 L175.140865,252.875045 L171.822516,252.875045 L171.822516,251.368542 C171.233161,252.482142 170.14089,253.159058 168.547948,253.159058 C166.015406,253.159058 164.661574,251.587445 164.661574,248.857329 L164.661574,242.351974 L168.045032,242.351974 Z M182.149135,242.067961 C183.675845,242.067961 184.877006,242.788658 185.445032,243.858477 L185.445032,242.351974 L188.763381,242.351974 L188.763381,252.875045 L185.445032,252.875045 L185.445032,251.389871 C184.877006,252.438361 183.568077,253.159058 182.105355,253.159058 C178.962129,253.159058 177.149161,250.779187 177.149161,247.61351 C177.149161,244.470284 179.091226,242.067961 182.149135,242.067961 Z M208.848594,239.2312 L208.848594,242.351974 L211.228465,242.351974 L211.228465,244.993406 L208.848594,244.993406 L208.848594,248.486877 C208.848594,250.036039 209.481729,250.277394 210.311316,250.277394 C210.726671,250.277394 211.162232,250.254942 211.467574,250.211161 L211.467574,252.875045 C210.988232,252.962606 210.202426,253.049045 209.241497,253.049045 C207.669884,253.049045 205.507794,252.701045 205.507794,249.185123 L205.507794,244.993406 L203.848619,244.993406 L203.848619,242.351974 L205.507794,242.351974 L205.507794,239.2312 L208.848594,239.2312 Z M228.343329,239.2312 L228.343329,242.351974 L230.7232,242.351974 L230.7232,244.993406 L228.343329,244.993406 L228.343329,248.486877 C228.343329,250.036039 228.976465,250.277394 229.806052,250.277394 C230.221406,250.277394 230.65809,250.254942 230.963432,250.211161 L230.963432,252.875045 C230.482968,252.962606 229.697161,253.049045 228.736232,253.049045 C227.164619,253.049045 225.003652,252.701045 225.003652,249.185123 L225.003652,244.993406 L223.344477,244.993406 L223.344477,242.351974 L225.003652,242.351974 L225.003652,239.2312 L228.343329,239.2312 Z M252.86049,242.067961 C254.737445,242.067961 255.698374,242.898671 256.15751,244.011148 C256.724413,242.876219 257.969355,242.069084 259.518516,242.069084 C262.531523,242.069084 263.252219,244.14249 263.252219,246.347239 L263.252219,252.875045 L259.89009,252.875045 L259.89009,246.959045 C259.89009,245.496323 259.344516,244.884516 258.318477,244.884516 C257.269987,244.884516 256.550413,245.473871 256.550413,247.460839 L256.550413,252.875045 L253.188284,252.875045 L253.188284,246.936594 C253.188284,245.473871 252.664039,244.884516 251.638,244.884516 C250.568181,244.884516 249.847484,245.473871 249.847484,247.460839 L249.847484,252.875045 L246.507806,252.875045 L246.507806,242.351974 L249.847484,242.351974 L249.847484,243.879806 C250.306619,242.832439 251.397768,242.067961 252.86049,242.067961 Z M198.281742,242.067961 C200.836735,242.067961 202.124335,243.509355 202.124335,246.368568 L202.124335,252.875045 L198.762206,252.875045 L198.762206,247.460839 C198.762206,245.692774 198.260413,244.884516 196.906581,244.884516 C195.5752,244.884516 194.875832,245.757884 194.875832,247.373277 L194.875832,252.873923 L191.536155,252.873923 L191.536155,242.351974 L194.875832,242.351974 L194.875832,243.879806 C195.487639,242.701097 196.6888,242.067961 198.281742,242.067961 Z M127.570535,239.782137 C125.412598,237.541045 122.109221,236.836359 119.224601,238.001756 C116.339981,239.167154 114.453139,241.96871 114.457507,245.079845 C114.452358,247.663399 115.758712,250.073011 117.926512,251.478508 C120.094312,252.884004 122.827258,253.093279 125.183781,252.034232 L125.183781,252.034232 L120.154619,247.005071 L124.005071,243.154619 L129.034232,248.189394 C130.307814,245.350877 129.728473,242.023228 127.570535,239.782137 Z M238.036813,244.863187 C236.487652,244.863187 235.526723,246.019445 235.526723,247.61351 C235.526723,249.207574 236.486529,250.386284 238.036813,250.386284 C239.695987,250.386284 240.548026,249.141342 240.548026,247.61351 C240.548026,246.107006 239.695987,244.863187 238.036813,244.863187 Z M183.065161,244.863187 C181.516,244.863187 180.555071,246.019445 180.555071,247.61351 C180.555071,249.207574 181.516,250.386284 183.065161,250.386284 C184.724335,250.386284 185.576374,249.141342 185.576374,247.61351 C185.576374,246.107006 184.724335,244.863187 183.065161,244.863187 Z M271.6132,244.863187 C270.106697,244.863187 269.080658,245.975665 269.080658,247.61351 C269.080658,249.272684 270.129148,250.386284 271.6132,250.386284 C273.075923,250.386284 274.101961,249.251355 274.101961,247.61351 C274.101961,245.996994 273.075923,244.863187 271.6132,244.863187 Z M154.662748,240.321226 C151.737303,240.321226 150.16569,242.570877 150.187019,245.233639 C150.16569,247.897523 151.737303,250.146052 154.662748,250.146052 C157.566865,250.146052 159.138477,247.897523 159.138477,245.233639 C159.138477,242.570877 157.566865,240.321226 154.662748,240.321226 Z M278.387974,241.684039 C278.668619,241.684039 278.915587,241.748026 279.128877,241.874877 C279.342168,242.000606 279.506065,242.171239 279.619445,242.389019 C279.733948,242.605677 279.7912,242.84591 279.7912,243.108594 C279.7912,243.375768 279.733948,243.617123 279.619445,243.834903 C279.50784,244.049231 279.337735,244.22751 279.128877,244.349045 C278.915587,244.475897 278.668619,244.539884 278.387974,244.539884 L278.387974,244.538761 C278.1272,244.5448 277.869767,244.47918 277.643703,244.349045 C277.435865,244.226937 277.266628,244.048751 277.155381,243.834903 C277.039751,243.610475 276.981149,243.361032 276.984748,243.108594 C276.984748,242.84591 277.040877,242.605677 277.155381,242.389019 C277.268761,242.171239 277.431535,242.000606 277.643703,241.873755 C277.869767,241.74362 278.1272,241.678 278.387974,241.684039 Z M278.387974,241.918658 C278.177292,241.913938 277.969664,241.969643 277.789639,242.079187 C277.620931,242.184132 277.484556,242.333716 277.395613,242.511381 C277.302128,242.696458 277.254393,242.901256 277.256413,243.108594 C277.256413,243.329742 277.302439,243.530684 277.395613,243.711419 C277.487665,243.893277 277.620129,244.036968 277.789639,244.143613 C277.960271,244.250258 278.16009,244.304142 278.387974,244.304142 C278.614735,244.304142 278.814555,244.250258 278.985187,244.143613 C279.154133,244.039293 279.290296,243.889514 279.37809,243.711419 C279.467897,243.530684 279.5128,243.329742 279.5128,243.108594 C279.5128,242.891935 279.467897,242.693239 279.37809,242.511381 C279.194437,242.13527 278.806231,241.902874 278.387974,241.918658 Z M278.467677,242.335135 C278.616981,242.335135 278.739342,242.385652 278.835884,242.487806 C278.931303,242.588839 278.979574,242.7112 278.979574,242.852645 C278.981252,242.958044 278.950702,243.061443 278.892013,243.149006 C278.832598,243.236743 278.745111,243.301665 278.643923,243.33311 L278.969471,243.845006 L278.70791,243.845006 L278.409303,243.360052 L278.115187,243.360052 L278.115187,243.845006 L277.880568,243.845006 L277.880568,242.335135 L278.467677,242.335135 Z M278.451961,242.543935 L278.1208,242.543935 L278.1208,243.156865 L278.451961,243.156865 C278.540645,243.156865 278.611368,243.127677 278.665252,243.069303 C278.718737,243.010048 278.747289,242.932435 278.744955,242.852645 C278.747756,242.771432 278.719219,242.692251 278.665252,242.631497 C278.6105,242.572351 278.532478,242.540321 278.451961,242.543935 Z" id="4"></path>
            </g>
        </g>
    </g>
</svg>