<?xml version="1.0" encoding="UTF-8"?>
<svg width="386px" height="150px" viewBox="0 0 386 150" version="1.1" xmlns="http://www.w3.org/2000/svg" xmlns:xlink="http://www.w3.org/1999/xlink">
    <title>Security-6</title>
    <g id="2022---新官网" stroke="none" stroke-width="1" fill="none" fill-rule="evenodd">
        <g id="编组-8" transform="translate(-814.000000, -170.000000)" fill="#FFFFFF">
            <path d="M925.31265,227.880946 C930.466028,225.405201 935.570077,225.36088 940.767114,227.822419 C942.709057,228.742371 944.847178,229.250362 946.857727,230.040759 C947.58064,230.32487 948.190722,230.886842 949.245892,231.580642 C947.920834,232.540369 946.972259,233.22735 945.843381,234.045022 C945.360305,233.405772 944.945835,232.858574 944.235395,231.919302 C942.339946,233.760343 940.299913,235.409324 938.697598,237.40208 C937.41223,239.001057 936.325876,239.176638 934.678768,238.175998 C931.923761,236.503152 929.448846,236.225859 927.458142,239.472682 C926.947284,240.306264 925.630165,240.657994 924.155989,241.550671 C925.614856,241.396115 926.484619,241.365431 927.327734,241.201783 C929.064994,240.864258 930.010734,241.604084 930.445049,243.21954 C931.284762,246.344763 933.080422,248.434685 936.44948,249.226787 C937.380479,249.445553 938.050661,250.750191 939.19088,251.91391 C943.142804,250.772352 943.476762,250.161513 941.877848,245.565162 C943.001624,245.173089 944.154883,244.836701 945.250876,244.369622 C946.355373,243.899134 947.403739,243.298523 948.656788,242.664387 C948.727662,246.357264 948.218505,249.609769 945.563287,252.135517 C941.563168,255.940334 937.513154,259.694011 932.918262,264 C928.176519,259.270685 923.458023,255.007313 919.356413,250.22629 C918.447872,249.167544 918.165138,247.56042 917.957739,245.918125 L917.877493,245.260549 C917.798655,244.603529 917.720127,243.951831 917.60668,243.338299 C917.273856,241.539307 917.192777,239.694857 917,237.870863 L917,237.870863 L917,231.707355 C919.772017,230.434537 922.563879,229.201495 925.31265,227.880946 Z M1008.38494,235.225504 L1008.38494,244.846077 C1011.32876,241.615733 1013.95222,239.3758 1018.58794,241.062284 C1016.51899,242.412949 1014.66607,243.622694 1012.79159,244.846077 C1015.00399,248.045169 1016.50878,250.219755 1018.01301,252.394911 C1017.86956,252.702319 1017.72611,253.009159 1017.58267,253.316567 C1017.15615,253.193263 1016.71166,253.094002 1016.26389,252.999153 L1015.5916,252.857736 C1014.47313,252.619376 1013.37999,252.347251 1012.54155,251.734636 C1011.03846,250.636831 1010.12617,248.749764 1008.5437,246.660411 C1008.39968,249.081038 1008.29422,250.857301 1008.18026,252.771074 L1003.93237,252.771074 L1003.93237,235.225504 L1008.38494,235.225504 Z M1074.97425,240.843746 L1074.97425,248.56816 C1072.71253,248.56816 1070.40601,248.46929 1068.11877,248.629528 C1067.44575,248.676691 1066.82546,249.457997 1066.18136,249.902915 C1066.80618,250.276237 1067.41457,250.935375 1068.0598,250.971741 C1070.38163,251.102432 1072.71593,251.022881 1075.04513,251.022881 C1075.15455,251.275172 1075.26455,251.526894 1075.37455,251.779185 C1074.79281,252.279221 1074.22526,253.19349 1073.62708,253.213378 C1069.70237,253.343501 1065.77029,253.280428 1061.6993,253.280428 L1061.6993,240.843746 L1074.97425,240.843746 Z M1098,235.629851 L1098,253.200423 L1098,253.200423 L1084.37059,253.200423 L1084.37059,240.938184 L1093.26384,240.938184 L1093.26384,235.629851 L1093.26384,235.629851 L1098,235.629851 Z M1082.30448,235.645193 L1082.30448,253.129395 L1077.76912,253.129395 L1077.76912,235.645193 L1082.30448,235.645193 Z M1037.01995,235.347785 L1037.47015,236.140456 C1036.67296,236.618899 1035.89675,237.464982 1035.07404,237.51044 C1032.07977,237.677497 1029.06961,237.576353 1025.74988,237.576353 L1025.74988,242.842638 L1036.77728,242.842638 L1036.77728,253.004727 C1031.65112,253.004727 1026.68712,253.03257 1021.72482,252.949609 C1021.3404,252.942791 1020.96902,252.154666 1020.5914,251.729636 C1021.05123,251.381316 1021.49688,250.755703 1021.97202,250.732974 C1024.13509,250.628421 1026.3061,250.694903 1028.47427,250.698312 C1028.73013,250.698739 1028.98598,250.698987 1029.24556,250.69912 L1030.87743,250.699032 C1031.16677,250.698952 1031.46727,250.698881 1031.78266,250.698881 L1031.78266,245.22349 L1020.86753,245.22349 L1020.86753,235.347785 L1037.01995,235.347785 Z M1059.50578,240.8467 L1059.50578,252.992453 L1055.11331,252.992453 L1055.11331,240.8467 L1059.50578,240.8467 Z M1044.00749,235.500239 C1044.10104,237.108309 1044.19516,238.723765 1044.31253,240.742091 L1052.91945,240.742091 L1052.91945,252.975918 L1048.54512,252.975918 L1048.54512,243.137716 L1044.0744,243.137716 L1044.0744,252.936142 L1039.61672,252.936142 L1039.61672,235.500239 L1044.00749,235.500239 Z M1001.2306,240.509233 C1001.3525,240.822324 1001.47384,241.134846 1001.59517,241.447936 C999.435506,244.296435 995.813003,241.701932 993.052892,243.109419 L993.052892,250.48665 L1001.12457,250.48665 C1001.26065,250.804854 1001.39673,251.123059 1001.5328,251.441263 C1000.73391,251.92482 999.953168,252.790223 999.134434,252.826589 C995.659348,252.98285 992.172923,252.893071 988.409239,252.893071 L988.409239,240.509233 L1001.2306,240.509233 Z M985.642948,240.419284 L985.642948,248.043123 C983.316019,248.043123 981.093416,247.945957 978.888956,248.09824 C978.168878,248.148244 977.495293,248.847726 976.800162,249.249459 C977.476582,249.672785 978.130322,250.410905 978.833391,250.460341 C981.073571,250.61717 983.331328,250.5183 985.582847,250.5183 L986.017729,251.289945 C985.373061,251.784867 984.742,252.684363 984.079755,252.70766 C980.224786,252.843465 976.362446,252.774142 972.285783,252.774142 L972.285783,240.419284 L985.642948,240.419284 Z M970.193984,235.097995 L970.193984,245.736254 L959.993256,245.736254 L959.993256,252.506623 L955.298573,252.506623 L955.298573,235.097995 L970.193984,235.097995 Z M1093.20317,243.255963 L1089.10099,243.255963 L1089.10099,250.908782 L1093.20317,250.908782 L1093.20317,243.255963 Z M1070.38276,243.282556 L1066.19837,243.282556 C1066.26017,244.328653 1066.3078,245.126438 1066.36223,246.046958 L1070.51033,246.046958 C1070.46157,244.986087 1070.42188,244.129207 1070.38276,243.282556 Z M981.087179,242.744449 L977.100101,242.744449 L977.100101,245.558855 L980.948266,245.558855 C980.994192,244.631516 981.032748,243.844528 981.087179,242.744449 Z M922.61831,241.873421 C922.331413,241.860352 922.057556,241.840464 921.77236,241.884786 C921.186092,241.976838 920.526682,242.221742 920.241485,242.802465 C920.068553,243.155331 920.035668,243.743441 920.34808,244.030393 C920.612297,244.273024 921.076096,244.270752 921.401548,244.201997 C922.235592,244.026984 922.702792,243.134307 923.026543,242.399027 C923.097417,242.237652 923.162054,242.071731 923.220454,241.901264 C923.211382,241.928539 922.662536,241.875694 922.61831,241.873421 Z M965.168746,237.413501 L960.224588,237.413501 L960.224588,243.270737 L965.168746,243.270737 L965.168746,237.413501 Z M1059.63789,235.578143 L1059.63789,239.106235 L1055.29418,239.106235 L1055.29418,235.578143 L1059.63789,235.578143 Z" id="6"></path>
        </g>
    </g>
</svg>